<?xml version="1.0" encoding="UTF-8"?>
<svg id="Capa_1" data-name="Capa 1" xmlns="http://www.w3.org/2000/svg" viewBox="0 0 247.24 97.23">
  <defs>
    <style>
      .cls-1 {
        fill: #fff;
      }
    </style>
  </defs>
  <g>
    <path class="cls-1" d="M0,55.59V1.09h22.85c3.8,0,7.15.62,10.05,1.86,2.9,1.24,5.14,3.01,6.71,5.3,1.58,2.29,2.37,4.96,2.37,8.01,0,1.42-.26,2.83-.78,4.21-.52,1.38-1.21,2.59-2.08,3.63-.87,1.03-1.82,1.77-2.85,2.21,1.58.62,2.98,1.59,4.21,2.91,1.23,1.32,2.19,2.86,2.87,4.64.69,1.77,1.03,3.6,1.03,5.49,0,3.23-.78,6.08-2.35,8.53-1.56,2.46-3.8,4.36-6.71,5.7-2.91,1.35-6.32,2.02-10.22,2.02H0ZM24.65,20.6c.79-.67,1.18-1.54,1.18-2.6,0-.98-.37-1.75-1.1-2.29-.74-.54-1.71-.81-2.93-.81h-5.74v6.71h5.32c1.4,0,2.49-.34,3.28-1.01ZM26.98,41c.81-.85,1.22-2,1.22-3.45,0-.75-.21-1.46-.62-2.13-.41-.67-1-1.22-1.77-1.63-.76-.41-1.63-.62-2.62-.62h-7.14v9.12h7.57c1.42,0,2.54-.43,3.36-1.28Z"/>
    <path class="cls-1" d="M84.86,55.59h-37.05V1.09h16.02v39.18h21.02v15.32Z"/>
    <path class="cls-1" d="M144.92,55.59h-16.56l-2.33-7.37h-17.69l-2.3,7.37h-16.58L110.31,1.01h13.87l20.74,54.58ZM121.65,34.95l-3.68-11.95-.81-2.87-.66,2.87-3.68,11.95h8.84Z"/>
    <path class="cls-1" d="M157.96,52.78c-4.34-2.55-7.76-5.99-10.26-10.32-2.5-4.33-3.75-9.08-3.75-14.26s1.25-9.91,3.75-14.22c2.49-4.31,5.91-7.71,10.26-10.22,4.34-2.51,9.15-3.76,14.43-3.76,3.18,0,6.23.48,9.15,1.44,2.92.96,5.57,2.31,7.95,4.07.47.39,1.23,1.01,1.23,1.01l-9.33,12.22s-.9-.67-1.29-.9c-1.16-.75-2.41-1.35-3.74-1.8-1.33-.45-2.66-.68-3.98-.68-2.12,0-4.12.57-6,1.71-1.87,1.14-3.37,2.69-4.5,4.66-1.13,1.97-1.69,4.14-1.69,6.52s.57,4.6,1.71,6.59c1.14,1.99,2.64,3.56,4.5,4.69,1.86,1.14,3.85,1.71,5.97,1.71,1.58,0,2.92-.17,4.03-.52,1.11-.35,2.37-1.01,3.76-2,.36-.26,1.38-1,1.38-1l9.16,12.41s-.7.54-1.11.85c-2.4,1.81-5.08,3.2-8.01,4.17-2.94.97-6.01,1.45-9.21,1.45-5.28,0-10.09-1.27-14.43-3.82Z"/>
    <path class="cls-1" d="M247.24,55.59h-19.15l-11.64-19.55-4.77,5.86v13.69h-16.02V1.01h16.02v19.09l14.58-19.09h19.67l-19.08,22.77,20.39,31.81Z"/>
  </g>
  <g>
    <path class="cls-1" d="M5.13,96.11c-1.29-.75-2.31-1.77-3.05-3.06-.75-1.29-1.12-2.71-1.12-4.27s.37-2.97,1.12-4.27c.75-1.29,1.76-2.31,3.05-3.06,1.29-.75,2.71-1.12,4.25-1.12s2.97.37,4.26,1.12c1.29.75,2.31,1.76,3.05,3.06.75,1.29,1.12,2.71,1.12,4.27s-.37,2.97-1.12,4.27c-.75,1.29-1.76,2.31-3.05,3.06-1.29.75-2.71,1.12-4.26,1.12s-2.96-.37-4.25-1.12ZM12.54,94.35c.96-.57,1.73-1.34,2.29-2.32.57-.98.85-2.06.85-3.25s-.28-2.27-.85-3.26c-.57-.99-1.33-1.76-2.29-2.33-.96-.57-2.01-.85-3.16-.85s-2.18.28-3.14.85c-.96.57-1.73,1.34-2.29,2.33-.57.99-.85,2.07-.85,3.26s.28,2.26.85,3.24c.57.98,1.33,1.76,2.29,2.32.96.57,2.01.85,3.14.85s2.19-.28,3.16-.85ZM11.47,77.06c.07.05.11.11.11.19,0,.1-.06.21-.17.31l-1.72,1.61c-.16.15-.35.22-.58.22h-.83c-.12,0-.22-.03-.29-.08-.07-.05-.1-.12-.1-.2,0-.09.04-.19.1-.29l1.2-1.55c.08-.1.16-.17.25-.22.08-.04.19-.06.31-.06h1.43c.12,0,.22.02.3.07Z"/>
    <path class="cls-1" d="M51.01,96.96h-1.16c-.31,0-.47-.16-.47-.47v-15.43c0-.31.16-.47.47-.47h5.44c1.12,0,2.09.22,2.93.66.83.44,1.48,1.06,1.93,1.85.45.8.68,1.71.68,2.74s-.22,2.02-.67,2.83c-.45.81-1.08,1.43-1.92,1.87-.83.44-1.81.66-2.95.66h-3.82v5.27c0,.31-.16.47-.47.47ZM57.02,88.88c.54-.28.96-.68,1.25-1.2.29-.52.44-1.12.44-1.8s-.15-1.27-.44-1.77c-.29-.5-.71-.89-1.25-1.17-.54-.28-1.17-.41-1.88-.41h-3.67v6.78h3.67c.71,0,1.34-.14,1.88-.42Z"/>
    <path class="cls-1" d="M101.48,96.96h-1.16c-.31,0-.47-.16-.47-.47v-13.97h-4.76c-.31,0-.47-.16-.47-.47v-.99c0-.31.16-.47.47-.47h11.62c.31,0,.47.16.47.47v.99c0,.31-.16.47-.47.47h-4.76v13.97c0,.31-.16.47-.47.47Z"/>
    <path class="cls-1" d="M147.6,96.96h-1.16c-.31,0-.47-.16-.47-.47v-15.43c0-.31.16-.47.47-.47h1.16c.31,0,.47.16.47.47v15.43c0,.31-.16.47-.47.47Z"/>
    <path class="cls-1" d="M190.3,96.11c-1.29-.75-2.31-1.77-3.05-3.06-.75-1.29-1.12-2.71-1.12-4.27s.37-2.97,1.12-4.27c.75-1.29,1.76-2.31,3.05-3.06,1.29-.75,2.71-1.12,4.25-1.12.99,0,1.92.15,2.79.45.88.3,1.67.73,2.39,1.29.13.11.2.22.2.34,0,.08-.04.19-.13.31l-.65.86c-.11.13-.22.2-.34.2-.1,0-.21-.04-.31-.13-.57-.41-1.2-.73-1.86-.97-.67-.23-1.36-.35-2.08-.35-1.13,0-2.18.28-3.14.85-.96.57-1.73,1.34-2.29,2.33-.57.99-.85,2.07-.85,3.26s.28,2.26.85,3.24c.57.98,1.33,1.76,2.29,2.32.96.57,2.01.85,3.14.85.74,0,1.43-.12,2.07-.34.64-.23,1.27-.57,1.89-1.03.11-.07.21-.11.29-.11.14,0,.26.07.36.2l.65.86c.09.12.13.23.13.33,0,.11-.05.21-.16.29-.73.58-1.54,1.02-2.42,1.34-.89.32-1.82.48-2.81.48-1.54,0-2.96-.37-4.25-1.12Z"/>
    <path class="cls-1" d="M246.61,96.65c0,.1-.04.18-.1.23-.07.05-.17.08-.3.08h-1.2c-.26,0-.44-.12-.54-.36l-1.29-3.32h-7.8l-1.28,3.32c-.09.24-.27.36-.54.36h-1.2c-.13,0-.23-.03-.3-.09-.07-.06-.1-.14-.1-.24,0-.06.01-.13.03-.21l6.2-15.48c.09-.24.28-.36.55-.36h1.11c.27,0,.45.12.55.36l6.18,15.48c.03.07.05.14.05.22ZM242.44,91.36l-3.06-7.93-.11-.33-.1.33-3.07,7.93h6.35Z"/>
  </g>
</svg>